<svg width="23" height="23" viewBox="0 0 23 23" fill="none" xmlns="http://www.w3.org/2000/svg">
<g clip-path="url(#clip0_31_57)">
<path d="M21.8165 9.33014C20.9701 7.94426 19.9026 6.70632 18.6561 5.66545L21.2811 3.04045C21.4519 2.86364 21.5464 2.62682 21.5443 2.38101C21.5421 2.1352 21.4435 1.90007 21.2697 1.72625C21.0959 1.55243 20.8608 1.45383 20.615 1.4517C20.3691 1.44956 20.1323 1.54405 19.9555 1.71483L17.1008 4.57327C15.3312 3.52216 13.3081 2.97433 11.2499 2.98889C5.44583 2.98889 2.13833 6.96201 0.683325 9.33014C0.23382 10.0572 -0.00428009 10.8951 -0.00428009 11.7498C-0.00428009 12.6046 0.23382 13.4425 0.683325 14.1695C1.52966 15.5554 2.59722 16.7933 3.84364 17.8342L1.21864 20.4592C1.1291 20.5457 1.05768 20.6491 1.00854 20.7635C0.959409 20.8779 0.933547 21.0009 0.932466 21.1254C0.931384 21.2499 0.955104 21.3733 1.00224 21.4885C1.04938 21.6038 1.11899 21.7084 1.20702 21.7964C1.29504 21.8845 1.39972 21.9541 1.51493 22.0012C1.63015 22.0484 1.7536 22.0721 1.87808 22.071C2.00256 22.0699 2.12558 22.0441 2.23995 21.9949C2.35433 21.9458 2.45778 21.8744 2.54426 21.7848L5.40551 18.9236C7.17295 19.9745 9.19364 20.5233 11.2499 20.5108C17.054 20.5108 20.3615 16.5376 21.8165 14.1695C22.266 13.4425 22.5041 12.6046 22.5041 11.7498C22.5041 10.8951 22.266 10.0572 21.8165 9.33014ZM2.28083 13.188C2.01376 12.7558 1.87231 12.2578 1.87231 11.7498C1.87231 11.2418 2.01376 10.7438 2.28083 10.3117C3.53145 8.28108 6.35801 4.86389 11.2499 4.86389C12.8064 4.85517 14.341 5.2303 15.718 5.95608L13.8308 7.84327C12.9308 7.24571 11.8517 6.97795 10.7767 7.08543C9.70166 7.19292 8.69695 7.66902 7.93301 8.43295C7.16908 9.19689 6.69298 10.2016 6.58549 11.2766C6.47801 12.3516 6.74576 13.4307 7.34333 14.3308L5.1777 16.4964C4.02936 15.568 3.04942 14.4488 2.28083 13.188ZM14.0624 11.7498C14.0624 12.4957 13.7661 13.2111 13.2386 13.7386C12.7112 14.266 11.9958 14.5623 11.2499 14.5623C10.8322 14.5607 10.4204 14.4646 10.0452 14.2811L13.7811 10.5451C13.9646 10.9203 14.0608 11.3322 14.0624 11.7498ZM8.43739 11.7498C8.43739 11.0039 8.7337 10.2885 9.26115 9.76109C9.7886 9.23364 10.504 8.93733 11.2499 8.93733C11.6675 8.93895 12.0794 9.0351 12.4546 9.21858L8.71864 12.9545C8.53516 12.5793 8.439 12.1675 8.43739 11.7498ZM20.219 13.188C18.9683 15.2186 16.1418 18.6358 11.2499 18.6358C9.69338 18.6445 8.15873 18.2694 6.78176 17.5436L8.66895 15.6564C9.56901 16.254 10.6481 16.5217 11.7231 16.4142C12.7981 16.3067 13.8028 15.8306 14.5668 15.0667C15.3307 14.3028 15.8068 13.2981 15.9143 12.223C16.0218 11.148 15.754 10.069 15.1565 9.16889L17.3221 7.00327C18.4704 7.93165 19.4504 9.05081 20.219 10.3117C20.486 10.7438 20.6275 11.2418 20.6275 11.7498C20.6275 12.2578 20.486 12.7558 20.219 13.188Z" fill="black" fill-opacity="0.4"/>
</g>
<defs>
<clipPath id="clip0_31_57">
<rect width="22.5" height="22.5" fill="white" transform="translate(0 0.5)"/>
</clipPath>
</defs>
</svg>
