<svg width="23" height="23" viewBox="0 0 23 23" fill="none" xmlns="http://www.w3.org/2000/svg">
<g clip-path="url(#clip0_54_120)">
<path d="M21.8165 8.83018C20.3624 6.46206 17.0549 2.48893 11.2499 2.48893C5.4449 2.48893 2.1374 6.46206 0.683333 8.83018C0.233828 9.55722 -0.00427246 10.3951 -0.00427246 11.2499C-0.00427246 12.1046 0.233828 12.9425 0.683333 13.6696C2.1374 16.0377 5.4449 20.0108 11.2499 20.0108C17.0549 20.0108 20.3624 16.0377 21.8165 13.6696C22.266 12.9425 22.5041 12.1046 22.5041 11.2499C22.5041 10.3951 22.266 9.55722 21.8165 8.83018V8.83018ZM20.218 12.688C18.9693 14.7186 16.1427 18.1358 11.2499 18.1358C6.35708 18.1358 3.53052 14.7186 2.28177 12.688C2.01471 12.2559 1.87326 11.7579 1.87326 11.2499C1.87326 10.7419 2.01471 10.2439 2.28177 9.81175C3.53052 7.78112 6.35708 4.36393 11.2499 4.36393C16.1427 4.36393 18.9693 7.77737 20.218 9.81175C20.4851 10.2439 20.6265 10.7419 20.6265 11.2499C20.6265 11.7579 20.4851 12.2559 20.218 12.688V12.688Z" fill="black" fill-opacity="0.4"/>
<path d="M11.2498 6.56235C10.3227 6.56235 9.41638 6.83727 8.64552 7.35234C7.87467 7.86741 7.27386 8.59949 6.91907 9.45602C6.56429 10.3126 6.47146 11.2551 6.65233 12.1643C6.8332 13.0736 7.27964 13.9089 7.93519 14.5644C8.59075 15.22 9.42599 15.6664 10.3353 15.8473C11.2446 16.0282 12.1871 15.9353 13.0436 15.5805C13.9001 15.2258 14.6322 14.6249 15.1473 13.8541C15.6623 13.0832 15.9373 12.177 15.9373 11.2499C15.9358 10.0071 15.4414 8.81569 14.5627 7.93693C13.6839 7.05818 12.4925 6.56384 11.2498 6.56235V6.56235ZM11.2498 14.0624C10.6935 14.0624 10.1497 13.8974 9.68722 13.5884C9.2247 13.2793 8.86422 12.8401 8.65135 12.3261C8.43847 11.8122 8.38278 11.2467 8.4913 10.7012C8.59982 10.1556 8.86768 9.65445 9.26102 9.26111C9.65435 8.86778 10.1555 8.59991 10.7011 8.49139C11.2466 8.38287 11.8121 8.43857 12.3261 8.65144C12.84 8.86431 13.2792 9.2248 13.5883 9.68731C13.8973 10.1498 14.0623 10.6936 14.0623 11.2499C14.0623 11.9958 13.7659 12.7111 13.2385 13.2386C12.7111 13.766 11.9957 14.0624 11.2498 14.0624Z" fill="black" fill-opacity="0.4"/>
</g>
<defs>
<clipPath id="clip0_54_120">
<rect width="22.5" height="22.5" fill="white"/>
</clipPath>
</defs>
</svg>
