<svg width="30" height="31" viewBox="0 0 30 31" fill="none" xmlns="http://www.w3.org/2000/svg">
<g clip-path="url(#clip0_39_59)">
<path d="M27.4997 0.49999H22.4997C22.1682 0.49999 21.8502 0.631687 21.6158 0.866107C21.3814 1.10053 21.2497 1.41847 21.2497 1.74999C21.2497 2.08151 21.3814 2.39945 21.6158 2.63387C21.8502 2.86829 22.1682 2.99999 22.4997 2.99999H25.7322L22.7322 5.99999C21.3641 4.96685 19.7206 4.36217 18.0091 4.26228C16.2976 4.16239 14.5949 4.57177 13.1159 5.43874C12.0012 4.79461 10.7579 4.40482 9.47497 4.29726C8.19203 4.18969 6.90118 4.367 5.69476 4.81652C4.48835 5.26603 3.3962 5.97662 2.49645 6.89746C1.59669 7.8183 0.911587 8.92662 0.49014 10.1431C0.068693 11.3596 -0.0786751 12.6542 0.0585793 13.9343C0.195834 15.2144 0.614318 16.4484 1.28409 17.5479C1.95386 18.6474 2.85837 19.5853 3.93289 20.2944C5.00741 21.0036 6.22539 21.4665 7.49968 21.65V24.25H4.99968C4.66816 24.25 4.35021 24.3817 4.11579 24.6161C3.88137 24.8505 3.74968 25.1685 3.74968 25.5C3.74968 25.8315 3.88137 26.1495 4.11579 26.3839C4.35021 26.6183 4.66816 26.75 4.99968 26.75H7.49968V29.25C7.49968 29.5815 7.63137 29.8995 7.86579 30.1339C8.10021 30.3683 8.41816 30.5 8.74968 30.5C9.0812 30.5 9.39914 30.3683 9.63356 30.1339C9.86798 29.8995 9.99968 29.5815 9.99968 29.25V26.75H12.4997C12.8312 26.75 13.1491 26.6183 13.3836 26.3839C13.618 26.1495 13.7497 25.8315 13.7497 25.5C13.7497 25.1685 13.618 24.8505 13.3836 24.6161C13.1491 24.3817 12.8312 24.25 12.4997 24.25H9.99968V21.6587C11.0985 21.495 12.1556 21.1216 13.1134 20.5587C14.8549 21.5773 16.8954 21.9615 18.8881 21.6459C20.8808 21.3304 22.7028 20.3346 24.0443 18.8277C25.3859 17.3209 26.1644 15.396 26.2474 13.3802C26.3304 11.3644 25.7128 9.38202 24.4997 7.76999L27.4997 4.76999V7.99999C27.4997 8.33151 27.6314 8.64945 27.8658 8.88387C28.1002 9.11829 28.4182 9.24999 28.7497 9.24999C29.0812 9.24999 29.3991 9.11829 29.6336 8.88387C29.868 8.64945 29.9997 8.33151 29.9997 7.99999V2.99999C29.9997 2.33695 29.7363 1.70106 29.2674 1.23222C28.7986 0.763383 28.1627 0.49999 27.4997 0.49999V0.49999ZM2.49968 13C2.49375 11.9848 2.73666 10.9836 3.20714 10.084C3.67763 9.18442 4.36137 8.4138 5.19856 7.83955C6.03576 7.26531 7.00089 6.90494 8.00957 6.78996C9.01824 6.67498 10.0397 6.80889 10.9847 7.17999C9.54585 8.77702 8.7496 10.8504 8.7496 13C8.7496 15.1496 9.54585 17.223 10.9847 18.82C10.0397 19.1911 9.01824 19.325 8.00957 19.21C7.00089 19.095 6.03576 18.7347 5.19856 18.1604C4.36137 17.5862 3.67763 16.8156 3.20714 15.916C2.73666 15.0164 2.49375 14.0152 2.49968 13ZM17.4997 19.25C16.2635 19.25 15.0552 18.8834 14.0274 18.1967C12.9996 17.5099 12.1985 16.5338 11.7254 15.3918C11.2524 14.2497 11.1286 12.9931 11.3698 11.7807C11.6109 10.5683 12.2062 9.45465 13.0803 8.58057C13.9543 7.70649 15.068 7.11124 16.2804 6.87008C17.4927 6.62892 18.7494 6.7527 19.8914 7.22574C21.0335 7.69879 22.0096 8.49987 22.6964 9.52768C23.3831 10.5555 23.7497 11.7639 23.7497 13C23.7477 14.657 23.0886 16.2455 21.9169 17.4172C20.7452 18.5889 19.1567 19.248 17.4997 19.25Z" fill="black" fill-opacity="0.5"/>
</g>
<defs>
<clipPath id="clip0_39_59">
<rect width="30" height="30" fill="white" transform="translate(0 0.5)"/>
</clipPath>
</defs>
</svg>
