<svg width="35" height="35" viewBox="0 0 35 35" fill="none" xmlns="http://www.w3.org/2000/svg">
<g clip-path="url(#clip0_44_170)">
<path d="M33.5416 24.7922C33.1548 24.7922 32.7839 24.9459 32.5104 25.2194C32.2369 25.4929 32.0832 25.8638 32.0832 26.2506V30.0218L27.717 25.6556C30.9166 22.2402 33.5416 18.2983 33.5416 14.5649C33.6221 12.3525 32.8237 10.1981 31.3208 8.57254C29.8179 6.94694 27.7327 5.98227 25.5207 5.88932C24.2053 5.90645 22.9151 6.25349 21.7686 6.89861C20.622 7.54374 19.6557 8.46633 18.9582 9.58182C18.2608 8.46633 17.2945 7.54374 16.1479 6.89861C15.0014 6.25349 13.7112 5.90645 12.3957 5.88932C11.159 5.89293 9.94243 6.20308 8.85491 6.79203L2.48928 0.427865C2.21424 0.162218 1.84586 0.0152261 1.46349 0.0185488C1.08112 0.0218715 0.715353 0.175243 0.444966 0.44563C0.174579 0.716017 0.0212077 1.08178 0.017885 1.46416C0.0145623 1.84653 0.161554 2.2149 0.427201 2.48995L6.56241 8.62662C5.14033 10.2771 4.36335 12.3863 4.37491 14.5649C4.37491 20.0935 10.1368 26.0858 14.9697 30.1341C16.0864 31.0737 17.4989 31.5889 18.9582 31.5889C20.4176 31.5889 21.8301 31.0737 22.9468 30.1341C23.8335 29.3904 24.7522 28.581 25.6607 27.722L30.0212 32.0839H26.2499C25.8631 32.0839 25.4922 32.2375 25.2187 32.511C24.9452 32.7845 24.7916 33.1555 24.7916 33.5422C24.7916 33.929 24.9452 34.2999 25.2187 34.5734C25.4922 34.8469 25.8631 35.0006 26.2499 35.0006H32.0832C32.8568 35.0006 33.5987 34.6933 34.1456 34.1463C34.6926 33.5993 34.9999 32.8575 34.9999 32.0839V26.2506C34.9999 25.8638 34.8463 25.4929 34.5728 25.2194C34.2993 24.9459 33.9284 24.7922 33.5416 24.7922Z" fill="#502064"/>
</g>
<defs>
<clipPath id="clip0_44_170">
<rect width="35" height="35" fill="white"/>
</clipPath>
</defs>
</svg>
