<svg width="23" height="23" viewBox="0 0 23 23" fill="none" xmlns="http://www.w3.org/2000/svg">
<g clip-path="url(#clip0_42_145)">
<path d="M11.2501 5.625C10.5084 5.625 9.78339 5.84493 9.16671 6.25699C8.55002 6.66904 8.06937 7.25471 7.78554 7.93994C7.50172 8.62516 7.42745 9.37916 7.57215 10.1066C7.71684 10.834 8.074 11.5022 8.59844 12.0267C9.12289 12.5511 9.79108 12.9083 10.5185 13.0529C11.2459 13.1976 11.9999 13.1234 12.6852 12.8395C13.3704 12.5557 13.956 12.0751 14.3681 11.4584C14.7802 10.8417 15.0001 10.1167 15.0001 9.375C15.0001 8.38044 14.605 7.42661 13.9017 6.72335C13.1985 6.02009 12.2447 5.625 11.2501 5.625ZM11.2501 11.25C10.8793 11.25 10.5167 11.14 10.2084 10.934C9.90006 10.728 9.65973 10.4351 9.51782 10.0925C9.3759 9.74992 9.33877 9.37292 9.41112 9.00921C9.48347 8.64549 9.66205 8.3114 9.92427 8.04918C10.1865 7.78695 10.5206 7.60837 10.8843 7.53603C11.248 7.46368 11.625 7.50081 11.9676 7.64273C12.3102 7.78464 12.6031 8.02496 12.8091 8.33331C13.0151 8.64165 13.1251 9.00416 13.1251 9.375C13.1251 9.87228 12.9275 10.3492 12.5759 10.7008C12.2243 11.0525 11.7474 11.25 11.2501 11.25Z" fill="white"/>
<path d="M11.2499 22.5003C10.4605 22.5043 9.68159 22.3191 8.97843 21.9603C8.27526 21.6015 7.6683 21.0794 7.20836 20.4378C3.63555 15.5093 1.82336 11.8043 1.82336 9.42495C1.82336 6.92487 2.81652 4.52718 4.58434 2.75936C6.35216 0.991536 8.74985 -0.00161743 11.2499 -0.00161743C13.75 -0.00161743 16.1477 0.991536 17.9155 2.75936C19.6833 4.52718 20.6765 6.92487 20.6765 9.42495C20.6765 11.8043 18.8643 15.5093 15.2915 20.4378C14.8316 21.0794 14.2246 21.6015 13.5214 21.9603C12.8183 22.3191 12.0394 22.5043 11.2499 22.5003ZM11.2499 2.04495C9.29282 2.04718 7.41651 2.82563 6.03262 4.20951C4.64873 5.5934 3.87028 7.46971 3.86805 9.42682C3.86805 11.3112 5.64274 14.7959 8.86399 19.2387C9.13745 19.6154 9.49621 19.9219 9.91091 20.1333C10.3256 20.3447 10.7845 20.4549 11.2499 20.4549C11.7154 20.4549 12.1742 20.3447 12.5889 20.1333C13.0036 19.9219 13.3624 19.6154 13.6359 19.2387C16.8571 14.7959 18.6318 11.3112 18.6318 9.42682C18.6296 7.46971 17.8511 5.5934 16.4672 4.20951C15.0833 2.82563 13.207 2.04718 11.2499 2.04495Z" fill="white"/>
</g>
<defs>
<clipPath id="clip0_42_145">
<rect width="22.5" height="22.5" fill="white"/>
</clipPath>
</defs>
</svg>
