<svg width="30" height="31" viewBox="0 0 30 31" fill="none" xmlns="http://www.w3.org/2000/svg">
<g clip-path="url(#clip0_31_46)">
<path d="M23.7499 11.03V9.24999C23.7499 6.92935 22.828 4.70375 21.1871 3.06281C19.5461 1.42186 17.3205 0.499992 14.9999 0.499992C12.6792 0.499992 10.4537 1.42186 8.81271 3.06281C7.17177 4.70375 6.24989 6.92935 6.24989 9.24999V11.03C5.13659 11.5159 4.18901 12.3156 3.52302 13.3315C2.85702 14.3474 2.50149 15.5353 2.49989 16.75V24.25C2.50188 25.907 3.161 27.4955 4.33267 28.6672C5.50434 29.8389 7.0929 30.498 8.74989 30.5H21.2499C22.9069 30.498 24.4954 29.8389 25.6671 28.6672C26.8388 27.4955 27.4979 25.907 27.4999 24.25V16.75C27.4983 15.5353 27.1428 14.3474 26.4768 13.3315C25.8108 12.3156 24.8632 11.5159 23.7499 11.03ZM8.74989 9.24999C8.74989 7.59239 9.40837 6.00268 10.5805 4.83057C11.7526 3.65847 13.3423 2.99999 14.9999 2.99999C16.6575 2.99999 18.2472 3.65847 19.4193 4.83057C20.5914 6.00268 21.2499 7.59239 21.2499 9.24999V10.5H8.74989V9.24999ZM24.9999 24.25C24.9999 25.2446 24.6048 26.1984 23.9015 26.9016C23.1983 27.6049 22.2445 28 21.2499 28H8.74989C7.75533 28 6.8015 27.6049 6.09824 26.9016C5.39498 26.1984 4.99989 25.2446 4.99989 24.25V16.75C4.99989 15.7554 5.39498 14.8016 6.09824 14.0983C6.8015 13.3951 7.75533 13 8.74989 13H21.2499C22.2445 13 23.1983 13.3951 23.9015 14.0983C24.6048 14.8016 24.9999 15.7554 24.9999 16.75V24.25Z" fill="black" fill-opacity="0.5"/>
<path d="M14.9999 17.9996C14.6684 17.9996 14.3504 18.1313 14.116 18.3657C13.8816 18.6001 13.7499 18.9181 13.7499 19.2496V21.7496C13.7499 22.0811 13.8816 22.3991 14.116 22.6335C14.3504 22.8679 14.6684 22.9996 14.9999 22.9996C15.3314 22.9996 15.6494 22.8679 15.8838 22.6335C16.1182 22.3991 16.2499 22.0811 16.2499 21.7496V19.2496C16.2499 18.9181 16.1182 18.6001 15.8838 18.3657C15.6494 18.1313 15.3314 17.9996 14.9999 17.9996Z" fill="black" fill-opacity="0.5"/>
</g>
<defs>
<clipPath id="clip0_31_46">
<rect width="30" height="30" fill="white" transform="translate(0 0.5)"/>
</clipPath>
</defs>
</svg>
