<svg width="28" height="28" viewBox="0 0 28 28" fill="none" xmlns="http://www.w3.org/2000/svg">
<g clip-path="url(#clip0_38_316)">
<path d="M21.7708 1.14565H5.72915C4.21024 1.14747 2.75406 1.75166 1.68003 2.82569C0.605995 3.89973 0.00180416 5.3559 -1.52588e-05 6.87482L-1.52588e-05 20.6248C0.00180416 22.1437 0.605995 23.5999 1.68003 24.6739C2.75406 25.748 4.21024 26.3522 5.72915 26.354H21.7708C23.2897 26.3522 24.7459 25.748 25.8199 24.6739C26.894 23.5999 27.4982 22.1437 27.5 20.6248V6.87482C27.4982 5.3559 26.894 3.89973 25.8199 2.82569C24.7459 1.75166 23.2897 1.14747 21.7708 1.14565ZM5.72915 3.43732H21.7708C22.4569 3.43867 23.1269 3.6453 23.6946 4.03063C24.2623 4.41596 24.7017 4.96236 24.9562 5.5995L16.1814 14.3754C15.5357 15.0186 14.6614 15.3797 13.75 15.3797C12.8386 15.3797 11.9643 15.0186 11.3185 14.3754L2.54373 5.5995C2.79828 4.96236 3.23767 4.41596 3.80535 4.03063C4.37304 3.6453 5.04304 3.43867 5.72915 3.43732ZM21.7708 24.0623H5.72915C4.81747 24.0623 3.94313 23.7002 3.29847 23.0555C2.65382 22.4108 2.29165 21.5365 2.29165 20.6248V8.59357L9.69832 15.9956C10.7738 17.0684 12.2309 17.6709 13.75 17.6709C15.2691 17.6709 16.7261 17.0684 17.8017 15.9956L25.2083 8.59357V20.6248C25.2083 21.5365 24.8462 22.4108 24.2015 23.0555C23.5568 23.7002 22.6825 24.0623 21.7708 24.0623Z" fill="black" fill-opacity="0.5"/>
</g>
<defs>
<clipPath id="clip0_38_316">
<rect width="27.5" height="27.5" fill="white"/>
</clipPath>
</defs>
</svg>
