<svg width="78" height="76" viewBox="0 0 78 76" fill="none" xmlns="http://www.w3.org/2000/svg">
<path d="M39 76C60.263 76 77.5 58.9868 77.5 38C77.5 17.0132 60.263 0 39 0C17.737 0 0.5 17.0132 0.5 38C0.5 58.9868 17.737 76 39 76Z" fill="#E43F6F"/>
<path d="M48.71 20.3517C46.7362 20.3823 44.8082 20.9325 43.1171 21.9468C41.4241 22.9611 40.0312 24.4053 39.0758 26.1302C38.1203 24.4053 36.7274 22.9611 35.0344 21.9468C33.3433 20.9325 31.4153 20.3823 29.4415 20.3517C26.2982 20.4874 23.3365 21.8627 21.2021 24.176C19.0697 26.4893 17.9385 29.5513 18.0569 32.6955C18.0569 40.6573 26.4396 49.3545 33.4714 55.2494C35.0401 56.5675 37.0255 57.2914 39.0758 57.2914C41.126 57.2914 43.1114 56.5675 44.6801 55.2494C51.7119 49.3545 60.0946 40.6573 60.0946 32.6955C60.213 29.5513 59.0818 26.4893 56.9494 24.176C54.815 21.8627 51.8533 20.4874 48.71 20.3517Z" fill="white"/>
</svg>
