<svg width="77" height="76" viewBox="0 0 77 76" fill="none" xmlns="http://www.w3.org/2000/svg">
<path d="M76.125 38C76.125 58.7797 59.2797 75.625 38.5 75.625C17.7203 75.625 0.875 58.7797 0.875 38C0.875 17.2203 17.7203 0.375 38.5 0.375C59.2797 0.375 76.125 17.2203 76.125 38Z" fill="white" stroke="#CA61C3" stroke-width="0.75"/>
<path d="M52.8021 23.6979C52.3558 23.2517 51.7494 23 51.1163 23C50.4851 23 49.8787 23.2517 49.4306 23.6979L38.5 34.6285L27.5675 23.6979C27.1213 23.2517 26.5149 23 25.8837 23C25.2506 23 24.6442 23.2517 24.1979 23.6979C23.7517 24.1442 23.5 24.7506 23.5 25.3837C23.5 26.0149 23.7517 26.6213 24.1979 27.0675L35.1285 38L24.1979 48.9306C23.7517 49.3787 23.5 49.9851 23.5 50.6163C23.5 51.2494 23.7517 51.8558 24.1979 52.3021C24.6442 52.7483 25.2506 53 25.8837 53C26.5149 53 27.1213 52.7483 27.5675 52.3021L38.5 41.3696L49.4306 52.3021C49.8787 52.7483 50.4851 53 51.1163 53C51.7494 53 52.3558 52.7483 52.8021 52.3021C53.2483 51.8558 53.5 51.2494 53.5 50.6163C53.5 49.9851 53.2483 49.3787 52.8021 48.9306L41.8696 38L52.8021 27.0675C53.2483 26.6213 53.5 26.0149 53.5 25.3837C53.5 24.7506 53.2483 24.1442 52.8021 23.6979Z" fill="#E43F6F"/>
</svg>
