<svg width="30" height="31" viewBox="0 0 30 31" fill="none" xmlns="http://www.w3.org/2000/svg">
<g clip-path="url(#clip0_31_218)">
<path d="M15 15.4999C16.4834 15.4999 17.9334 15.0601 19.1668 14.2359C20.4001 13.4118 21.3614 12.2405 21.9291 10.8701C22.4968 9.49961 22.6453 7.99161 22.3559 6.53675C22.0665 5.08189 21.3522 3.74552 20.3033 2.69663C19.2544 1.64773 17.918 0.933427 16.4632 0.644037C15.0083 0.354648 13.5003 0.503173 12.1299 1.07083C10.7594 1.63849 9.58809 2.59978 8.76398 3.83315C7.93987 5.06652 7.5 6.51657 7.5 7.99993C7.50199 9.98844 8.2928 11.8949 9.69889 13.301C11.105 14.7071 13.0115 15.4979 15 15.4999ZM15 2.99993C15.9889 2.99993 16.9556 3.29317 17.7779 3.84258C18.6001 4.39199 19.241 5.17288 19.6194 6.08651C19.9978 7.00014 20.0969 8.00547 19.9039 8.97538C19.711 9.94528 19.2348 10.8362 18.5355 11.5355C17.8363 12.2347 16.9454 12.7109 15.9755 12.9039C15.0055 13.0968 14.0002 12.9978 13.0866 12.6193C12.173 12.2409 11.3921 11.6 10.8427 10.7778C10.2932 9.95553 10 8.98883 10 7.99993C10 6.67384 10.5268 5.40207 11.4645 4.46439C12.4021 3.52671 13.6739 2.99993 15 2.99993Z" fill="black" fill-opacity="0.5"/>
<path d="M15 18.0008C12.0173 18.0041 9.15777 19.1904 7.0487 21.2995C4.93964 23.4085 3.75331 26.2681 3.75 29.2508C3.75 29.5823 3.8817 29.9002 4.11612 30.1346C4.35054 30.3691 4.66848 30.5008 5 30.5008C5.33152 30.5008 5.64946 30.3691 5.88388 30.1346C6.1183 29.9002 6.25 29.5823 6.25 29.2508C6.25 26.9301 7.17187 24.7045 8.81282 23.0636C10.4538 21.4226 12.6794 20.5008 15 20.5008C17.3206 20.5008 19.5462 21.4226 21.1872 23.0636C22.8281 24.7045 23.75 26.9301 23.75 29.2508C23.75 29.5823 23.8817 29.9002 24.1161 30.1346C24.3505 30.3691 24.6685 30.5008 25 30.5008C25.3315 30.5008 25.6495 30.3691 25.8839 30.1346C26.1183 29.9002 26.25 29.5823 26.25 29.2508C26.2467 26.2681 25.0604 23.4085 22.9513 21.2995C20.8422 19.1904 17.9827 18.0041 15 18.0008Z" fill="black" fill-opacity="0.5"/>
</g>
<defs>
<clipPath id="clip0_31_218">
<rect width="30" height="30" fill="white" transform="translate(0 0.5)"/>
</clipPath>
</defs>
</svg>
